<?xml version="1.0" encoding="utf-8"?>
<!-- Generator: Adobe Illustrator 27.2.0, SVG Export Plug-In . SVG Version: 6.00 Build 0)  -->
<svg version="1.1" id="레이어_1" xmlns="http://www.w3.org/2000/svg" xmlns:xlink="http://www.w3.org/1999/xlink" x="0px"
	 y="0px" viewBox="0 0 65 65" style="enable-background:new 0 0 65 65;" xml:space="preserve">
<style type="text/css">
	.st0{fill:#45A5FC;}
	.st1{fill:none;stroke:#FFFFFF;stroke-width:2.5;stroke-linecap:round;stroke-miterlimit:10;}
	.st2{fill:none;stroke:#FFFFFF;stroke-width:3;stroke-linecap:round;stroke-miterlimit:10;}
	.st3{fill:#FFFFFF;}
	.st4{fill:none;stroke:#FFFFFF;stroke-width:0.75;stroke-linecap:round;stroke-miterlimit:10;}
</style>
<circle class="st0" cx="32.5" cy="32.5" r="32"/>
<path class="st1" d="M8,35c0,0,0-8.5,7.5-8.5c7,0,6.5,8.5,6.5,8.5"/>
<path class="st1" d="M42,35c0,0,0-8.5,7.5-8.5c7,0,6.5,8.5,6.5,8.5"/>
<path class="st2" d="M13,46"/>
<path class="st2" d="M13,49"/>
<path class="st3" d="M19.5,44.5h26c0,0-3.2,12.6-13.6,12.6S19.5,44.5,19.5,44.5z"/>
<line class="st4" x1="9.5" y1="41.5" x2="7.2" y2="45"/>
<line class="st4" x1="7.5" y1="41.8" x2="6.2" y2="43.7"/>
<line class="st4" x1="12.5" y1="42.8" x2="11.2" y2="44.7"/>
<line class="st4" x1="11.5" y1="41.5" x2="9.2" y2="45"/>
<line class="st4" x1="54.5" y1="41.5" x2="52.2" y2="45"/>
<line class="st4" x1="52.5" y1="41.8" x2="51.2" y2="43.7"/>
<line class="st4" x1="57.5" y1="42.8" x2="56.2" y2="44.7"/>
<line class="st4" x1="56.5" y1="41.5" x2="54.2" y2="45"/>
</svg>
