<?xml version="1.0" encoding="utf-8"?>
<!-- Generator: Adobe Illustrator 27.2.0, SVG Export Plug-In . SVG Version: 6.00 Build 0)  -->
<svg version="1.1" id="레이어_1" xmlns="http://www.w3.org/2000/svg" xmlns:xlink="http://www.w3.org/1999/xlink" x="0px"
	 y="0px" viewBox="0 0 65 65" style="enable-background:new 0 0 65 65;" xml:space="preserve">
<style type="text/css">
	.st0{fill:#8CC76D;}
	.st1{fill:none;stroke:#FFFFFF;stroke-width:0.75;stroke-linecap:round;stroke-miterlimit:10;}
	.st2{fill:none;stroke:#FFFFFF;stroke-width:2.5;stroke-linecap:round;stroke-miterlimit:10;}
	.st3{fill:#FFFFFF;}
</style>
<circle class="st0" cx="32.9" cy="32.6" r="32"/>
<line class="st1" x1="9.2" y1="40.9" x2="6.9" y2="44.4"/>
<line class="st1" x1="7.2" y1="41.1" x2="5.9" y2="43.1"/>
<line class="st1" x1="12.2" y1="42.1" x2="10.9" y2="44.1"/>
<line class="st1" x1="11.2" y1="40.9" x2="8.9" y2="44.4"/>
<line class="st1" x1="54.2" y1="40.9" x2="51.9" y2="44.4"/>
<line class="st1" x1="52.2" y1="41.1" x2="50.9" y2="43.1"/>
<line class="st1" x1="57.2" y1="42.1" x2="55.9" y2="44.1"/>
<line class="st1" x1="56.2" y1="40.9" x2="53.9" y2="44.4"/>
<line class="st2" x1="8.9" y1="28" x2="20.3" y2="28"/>
<line class="st2" x1="8.9" y1="34" x2="20.3" y2="34"/>
<line class="st2" x1="45.3" y1="27.8" x2="56.7" y2="27.8"/>
<line class="st2" x1="45.3" y1="33.8" x2="56.7" y2="33.8"/>
<path class="st2" d="M19.5,44.5"/>
<path class="st3" d="M38,48.1c0,0,0,6.9-6.1,6.9C26,55,26,48,26,48L38,48.1z"/>
</svg>
