<?xml version="1.0" encoding="utf-8"?>
<!-- Generator: Adobe Illustrator 27.2.0, SVG Export Plug-In . SVG Version: 6.00 Build 0)  -->
<svg version="1.1" id="레이어_1" xmlns="http://www.w3.org/2000/svg" xmlns:xlink="http://www.w3.org/1999/xlink" x="0px"
	 y="0px" viewBox="0 0 65 65" style="enable-background:new 0 0 65 65;" xml:space="preserve">
<style type="text/css">
	.st0{fill:#DA3F3A;}
	.st1{fill:none;stroke:#FFFFFF;stroke-width:0.75;stroke-linecap:round;stroke-miterlimit:10;}
	.st2{fill:none;stroke:#FFFFFF;stroke-width:2;stroke-linecap:round;stroke-miterlimit:10;}
	.st3{fill:#FFFFFF;}
	.st4{fill:none;stroke:#FFFFFF;stroke-width:2;stroke-linecap:round;stroke-linejoin:round;stroke-miterlimit:10;}
</style>
<path class="st0" d="M33,64.6c-17.7,0-32-14.3-32-32s14.3-32,32-32s32,14.3,32,32S50.6,64.6,33,64.6"/>
<line class="st1" x1="9.3" y1="40.9" x2="7" y2="44.4"/>
<line class="st1" x1="7.3" y1="41.1" x2="6" y2="43.1"/>
<line class="st1" x1="12.3" y1="42.1" x2="11" y2="44.1"/>
<line class="st1" x1="11.3" y1="40.9" x2="9" y2="44.4"/>
<line class="st1" x1="55.3" y1="40.9" x2="53" y2="44.4"/>
<line class="st1" x1="53.3" y1="41.1" x2="52" y2="43.1"/>
<line class="st1" x1="58.3" y1="42.1" x2="57" y2="44.1"/>
<line class="st1" x1="57.3" y1="40.9" x2="55" y2="44.4"/>
<line class="st2" x1="46.1" y1="25.5" x2="50.1" y2="23.5"/>
<line class="st2" x1="20.1" y1="25.5" x2="16.1" y2="23.5"/>
<path class="st3" d="M7.2,26L20,31.8c0,0-4.7,8.6-10.7,3.7C6,32.8,7.2,26,7.2,26z"/>
<path class="st3" d="M56.8,26L44,31.8c0,0,4.7,8.6,10.7,3.7C58,32.8,56.8,26,56.8,26z"/>
<polyline class="st4" points="22,50 25,48 29,51 32.5,47.5 "/>
<polyline class="st4" points="43.5,50 40.5,48 36.5,51 33,47.5 "/>
</svg>
